# xmcd
#
# Track frame offsets:
#	150
#	16887
#	34396
#	49122
#	69503
#	88334
#	104055
#	119121
#	141096
#	162537
#	179208
#	204171
#	218301
#	236092
#	253157
#	278632
#	296904
#	315971
#	329590
#	343522
#
# Disc length: 4846 seconds
#
# Revision: 1
# Processed by: cddbd v1.5.2PL0 Copyright (c) Steve Scherf et al.
# Submitted via: EZCDAudioConverter 7.0.0.1
#
DISCID=3f12ec14
DTITLE=Nena 40 - Das Neue Best Of Album (Premium Edition) [CD 1)
DYEAR=2017
DGENRE=Deutsch-Pop
TTITLE0=Nena - Nur Geträumt
TTITLE1=Nena - 99 Luftballons
TTITLE2=Nena - Leuchtturm
TTITLE3=Nena - ? (Fragezeichen)
TTITLE4=Nena - Irgendwie, Irgendwo, Irgendwann
TTITLE5=Nena - Ganz Oben
TTITLE6=Nena - Rette Mich
TTITLE7=Nena - Lass Mich Dein Pirat Sein
TTITLE8=Nena - Haus Der Drei Sonnen
TTITLE9=Nena feat. Tok Tok - Ich Häng Immer Noch An Dir (New Version)
TTITLE10=Nena - Wunder Gescheh'n (Live)
TTITLE11=Nena - Mach Die Augen Auf (Radio Edit)
TTITLE12=Nena - Wir Sind Wahr (Radio Edit)
TTITLE13=Nena - Willst Du Mit Mir Gehn
TTITLE14=Nena - In Meinem Leben
TTITLE15=Nena - Liebe Ist (Radio Version)
TTITLE16=Nena - Leuchtturm (New Version)
TTITLE17=Nena - Lieder Von Früher
TTITLE18=Nena - Genau Jetzt
TTITLE19=Nena - Das Ist Nicht Alles
EXTD=
EXTT0=
EXTT1=
EXTT2=
EXTT3=
EXTT4=
EXTT5=
EXTT6=
EXTT7=
EXTT8=
EXTT9=
EXTT10=
EXTT11=
EXTT12=
EXTT13=
EXTT14=
EXTT15=
EXTT16=
EXTT17=
EXTT18=
EXTT19=
PLAYORDER=
